<?xml version="1.0" encoding="UTF-8" standalone="no"?>
<!-- Created with Inkscape (http://www.inkscape.org/) -->

<svg
   xmlns:dc="http://purl.org/dc/elements/1.1/"
   xmlns:cc="http://creativecommons.org/ns#"
   xmlns:rdf="http://www.w3.org/1999/02/22-rdf-syntax-ns#"
   xmlns:svg="http://www.w3.org/2000/svg"
   xmlns="http://www.w3.org/2000/svg"
   xmlns:sodipodi="http://sodipodi.sourceforge.net/DTD/sodipodi-0.dtd"
   xmlns:inkscape="http://www.inkscape.org/namespaces/inkscape"
   width="210mm"
   height="297mm"
   viewBox="0 0 210 297"
   version="1.1"
   id="svg8"
   sodipodi:docname="overfitting.svg"
   inkscape:version="0.92.4 (f8dce91, 2019-08-02)"
   inkscape:export-filename="/home/clemens/repositorys/pytorch-ai/graphics/overfitting.png"
   inkscape:export-xdpi="200"
   inkscape:export-ydpi="200">
  <defs
     id="defs2" />
  <sodipodi:namedview
     id="base"
     pagecolor="#ffffff"
     bordercolor="#666666"
     borderopacity="1.0"
     inkscape:pageopacity="0.0"
     inkscape:pageshadow="2"
     inkscape:zoom="0.70003572"
     inkscape:cx="292.65492"
     inkscape:cy="497.96103"
     inkscape:document-units="mm"
     inkscape:current-layer="layer1"
     showgrid="false"
     inkscape:window-width="1850"
     inkscape:window-height="1016"
     inkscape:window-x="70"
     inkscape:window-y="27"
     inkscape:window-maximized="1" />
  <metadata
     id="metadata5">
    <rdf:RDF>
      <cc:Work
         rdf:about="">
        <dc:format>image/svg+xml</dc:format>
        <dc:type
           rdf:resource="http://purl.org/dc/dcmitype/StillImage" />
        <dc:title />
      </cc:Work>
    </rdf:RDF>
  </metadata>
  <g
     inkscape:label="Layer 1"
     inkscape:groupmode="layer"
     id="layer1">
    <path
       style="fill:none;stroke:#000000;stroke-width:0.8;stroke-linecap:butt;stroke-linejoin:miter;stroke-opacity:1;stroke-miterlimit:4;stroke-dasharray:none"
       d="M 24.938175,73.25431 V 233.13027 H 184.81414"
       id="path817"
       inkscape:connector-curvature="0" />
    <path
       style="fill:#000000;fill-opacity:1;stroke:#000000;stroke-width:0.26499999;stroke-linecap:butt;stroke-linejoin:miter;stroke-miterlimit:4;stroke-dasharray:none;stroke-opacity:1"
       d="m 23.609672,74.432346 1.299293,-2.22802 1.299293,2.22802 z"
       id="path819"
       inkscape:connector-curvature="0"
       sodipodi:nodetypes="cccc" />
    <path
       style="fill:#000000;fill-opacity:1;stroke:#000000;stroke-width:0.26499999;stroke-linecap:butt;stroke-linejoin:miter;stroke-miterlimit:4;stroke-dasharray:none;stroke-opacity:1"
       d="m 184.3211,231.91488 2.22802,1.2993 -2.22802,1.29929 z"
       id="path819-9"
       inkscape:connector-curvature="0"
       sodipodi:nodetypes="cccc" />
    <circle
       style="opacity:1;fill:#a4e000;fill-opacity:1;stroke:none;stroke-width:0.13250001;stroke-linecap:butt;stroke-linejoin:round;stroke-miterlimit:4;stroke-dasharray:none;stroke-opacity:1;paint-order:markers fill stroke"
       id="path836"
       cx="41.059551"
       cy="184.03424"
       r="2.5" />
    <circle
       style="opacity:1;fill:#a4e000;fill-opacity:1;stroke:none;stroke-width:0.13250001;stroke-linecap:butt;stroke-linejoin:round;stroke-miterlimit:4;stroke-dasharray:none;stroke-opacity:1;paint-order:markers fill stroke"
       id="path836-4"
       cx="60.851063"
       cy="211.20378"
       r="2.5" />
    <circle
       style="opacity:1;fill:#a4e000;fill-opacity:1;stroke:none;stroke-width:0.13250001;stroke-linecap:butt;stroke-linejoin:round;stroke-miterlimit:4;stroke-dasharray:none;stroke-opacity:1;paint-order:markers fill stroke"
       id="path836-5"
       cx="70.67794"
       cy="179.83336"
       r="2.5" />
    <circle
       style="opacity:1;fill:#a4e000;fill-opacity:1;stroke:none;stroke-width:0.13250001;stroke-linecap:butt;stroke-linejoin:round;stroke-miterlimit:4;stroke-dasharray:none;stroke-opacity:1;paint-order:markers fill stroke"
       id="path836-9"
       cx="37.039776"
       cy="146.95111"
       r="2.5" />
    <circle
       style="opacity:1;fill:#a4e000;fill-opacity:1;stroke:none;stroke-width:0.13250001;stroke-linecap:butt;stroke-linejoin:round;stroke-miterlimit:4;stroke-dasharray:none;stroke-opacity:1;paint-order:markers fill stroke"
       id="path836-3"
       cx="38.929562"
       cy="208.18013"
       r="2.5" />
    <circle
       style="opacity:1;fill:#a4e000;fill-opacity:1;stroke:none;stroke-width:0.13250001;stroke-linecap:butt;stroke-linejoin:round;stroke-miterlimit:4;stroke-dasharray:none;stroke-opacity:1;paint-order:markers fill stroke"
       id="path836-57"
       cx="125.10374"
       cy="218.76292"
       r="2.5" />
    <circle
       style="opacity:1;fill:#a4e000;fill-opacity:1;stroke:none;stroke-width:0.13250001;stroke-linecap:butt;stroke-linejoin:round;stroke-miterlimit:4;stroke-dasharray:none;stroke-opacity:1;paint-order:markers fill stroke"
       id="path836-0"
       cx="102.04836"
       cy="182.47906"
       r="2.5" />
    <circle
       style="opacity:1;fill:#a4e000;fill-opacity:1;stroke:none;stroke-width:0.13250001;stroke-linecap:butt;stroke-linejoin:round;stroke-miterlimit:4;stroke-dasharray:none;stroke-opacity:1;paint-order:markers fill stroke"
       id="path836-8"
       cx="90.331703"
       cy="208.93604"
       r="2.5" />
    <circle
       style="opacity:1;fill:#a4e000;fill-opacity:1;stroke:none;stroke-width:0.13250001;stroke-linecap:butt;stroke-linejoin:round;stroke-miterlimit:4;stroke-dasharray:none;stroke-opacity:1;paint-order:markers fill stroke"
       id="path836-1"
       cx="150.42685"
       cy="212.71561"
       r="2.5" />
    <circle
       style="opacity:1;fill:#a4e000;fill-opacity:1;stroke:none;stroke-width:0.13250001;stroke-linecap:butt;stroke-linejoin:round;stroke-miterlimit:4;stroke-dasharray:none;stroke-opacity:1;paint-order:markers fill stroke"
       id="path836-99"
       cx="147.4032"
       cy="98.950584"
       r="2.5" />
    <circle
       style="opacity:1;fill:#a4e000;fill-opacity:1;stroke:none;stroke-width:0.13250001;stroke-linecap:butt;stroke-linejoin:round;stroke-miterlimit:4;stroke-dasharray:none;stroke-opacity:1;paint-order:markers fill stroke"
       id="path836-7"
       cx="63.496761"
       cy="125.78552"
       r="2.5" />
    <circle
       style="opacity:1;fill:#a4e000;fill-opacity:1;stroke:none;stroke-width:0.13250001;stroke-linecap:butt;stroke-linejoin:round;stroke-miterlimit:4;stroke-dasharray:none;stroke-opacity:1;paint-order:markers fill stroke"
       id="path836-82"
       cx="68.032242"
       cy="157.53391"
       r="2.5" />
    <circle
       style="opacity:1;fill:#a4e000;fill-opacity:1;stroke:none;stroke-width:0.13250001;stroke-linecap:butt;stroke-linejoin:round;stroke-miterlimit:4;stroke-dasharray:none;stroke-opacity:1;paint-order:markers fill stroke"
       id="path836-53"
       cx="116.41073"
       cy="196.08551"
       r="2.5" />
    <circle
       style="opacity:1;fill:#a4e000;fill-opacity:1;stroke:none;stroke-width:0.13250001;stroke-linecap:butt;stroke-linejoin:round;stroke-miterlimit:4;stroke-dasharray:none;stroke-opacity:1;paint-order:markers fill stroke"
       id="path836-49"
       cx="55.937622"
       cy="196.46347"
       r="2.5" />
    <circle
       style="opacity:1;fill:#a4e000;fill-opacity:1;stroke:none;stroke-width:0.13250001;stroke-linecap:butt;stroke-linejoin:round;stroke-miterlimit:4;stroke-dasharray:none;stroke-opacity:1;paint-order:markers fill stroke"
       id="path836-02"
       cx="43.465046"
       cy="158.66777"
       r="2.5" />
    <circle
       style="opacity:1;fill:#a4e000;fill-opacity:1;stroke:none;stroke-width:0.13250001;stroke-linecap:butt;stroke-linejoin:round;stroke-miterlimit:4;stroke-dasharray:none;stroke-opacity:1;paint-order:markers fill stroke"
       id="path836-01"
       cx="34.394077"
       cy="95.926926"
       r="2.5" />
    <circle
       style="opacity:1;fill:#a4e000;fill-opacity:1;stroke:none;stroke-width:0.13250001;stroke-linecap:butt;stroke-linejoin:round;stroke-miterlimit:4;stroke-dasharray:none;stroke-opacity:1;paint-order:markers fill stroke"
       id="path836-96"
       cx="41.57526"
       cy="117.84843"
       r="2.5" />
    <circle
       style="opacity:1;fill:#a4e0ff;fill-opacity:1;stroke:none;stroke-width:0.13250001;stroke-linecap:butt;stroke-linejoin:round;stroke-miterlimit:4;stroke-dasharray:none;stroke-opacity:1;paint-order:markers fill stroke"
       id="path836-2"
       cx="136.06448"
       cy="134.85649"
       r="2.5" />
    <circle
       style="opacity:1;fill:#a4e0ff;fill-opacity:1;stroke:none;stroke-width:0.13250001;stroke-linecap:butt;stroke-linejoin:round;stroke-miterlimit:4;stroke-dasharray:none;stroke-opacity:1;paint-order:markers fill stroke"
       id="path836-2-3"
       cx="85.040306"
       cy="162.44734"
       r="2.5" />
    <circle
       style="opacity:1;fill:#a4e0ff;fill-opacity:1;stroke:none;stroke-width:0.13250001;stroke-linecap:butt;stroke-linejoin:round;stroke-miterlimit:4;stroke-dasharray:none;stroke-opacity:1;paint-order:markers fill stroke"
       id="path836-2-1"
       cx="98.268799"
       cy="134.85649"
       r="2.5" />
    <circle
       style="opacity:1;fill:#a4e0ff;fill-opacity:1;stroke:none;stroke-width:0.13250001;stroke-linecap:butt;stroke-linejoin:round;stroke-miterlimit:4;stroke-dasharray:none;stroke-opacity:1;paint-order:markers fill stroke"
       id="path836-2-19"
       cx="78.237076"
       cy="112.55703"
       r="2.5" />
    <circle
       style="opacity:1;fill:#a4e0ff;fill-opacity:1;stroke:none;stroke-width:0.13250001;stroke-linecap:butt;stroke-linejoin:round;stroke-miterlimit:4;stroke-dasharray:none;stroke-opacity:1;paint-order:markers fill stroke"
       id="path836-2-0"
       cx="57.449451"
       cy="85.344131"
       r="2.5" />
    <circle
       style="opacity:1;fill:#a4e0ff;fill-opacity:1;stroke:none;stroke-width:0.13250001;stroke-linecap:butt;stroke-linejoin:round;stroke-miterlimit:4;stroke-dasharray:none;stroke-opacity:1;paint-order:markers fill stroke"
       id="path836-2-5"
       cx="106.20589"
       cy="93.281227"
       r="2.5" />
    <circle
       style="opacity:1;fill:#a4e0ff;fill-opacity:1;stroke:none;stroke-width:0.13250001;stroke-linecap:butt;stroke-linejoin:round;stroke-miterlimit:4;stroke-dasharray:none;stroke-opacity:1;paint-order:markers fill stroke"
       id="path836-2-6"
       cx="176.12791"
       cy="119.36025"
       r="2.5" />
    <circle
       style="opacity:1;fill:#a4e0ff;fill-opacity:1;stroke:none;stroke-width:0.13250001;stroke-linecap:butt;stroke-linejoin:round;stroke-miterlimit:4;stroke-dasharray:none;stroke-opacity:1;paint-order:markers fill stroke"
       id="path836-2-7"
       cx="170.45857"
       cy="164.33713"
       r="2.5" />
    <circle
       style="opacity:1;fill:#a4e0ff;fill-opacity:1;stroke:none;stroke-width:0.13250001;stroke-linecap:butt;stroke-linejoin:round;stroke-miterlimit:4;stroke-dasharray:none;stroke-opacity:1;paint-order:markers fill stroke"
       id="path836-2-74"
       cx="140.22202"
       cy="169.62852"
       r="2.5" />
    <circle
       style="opacity:1;fill:#a4e0ff;fill-opacity:1;stroke:none;stroke-width:0.13250001;stroke-linecap:butt;stroke-linejoin:round;stroke-miterlimit:4;stroke-dasharray:none;stroke-opacity:1;paint-order:markers fill stroke"
       id="path836-2-06"
       cx="121.70213"
       cy="156.77798"
       r="2.5" />
    <circle
       style="opacity:1;fill:#a4e0ff;fill-opacity:1;stroke:none;stroke-width:0.13250001;stroke-linecap:butt;stroke-linejoin:round;stroke-miterlimit:4;stroke-dasharray:none;stroke-opacity:1;paint-order:markers fill stroke"
       id="path836-2-4"
       cx="117.16664"
       cy="118.9823"
       r="2.5" />
    <circle
       style="opacity:1;fill:#a4e0ff;fill-opacity:1;stroke:none;stroke-width:0.13250001;stroke-linecap:butt;stroke-linejoin:round;stroke-miterlimit:4;stroke-dasharray:none;stroke-opacity:1;paint-order:markers fill stroke"
       id="path836-2-748"
       cx="154.58438"
       cy="121.25004"
       r="2.5" />
    <circle
       style="opacity:1;fill:#a4e0ff;fill-opacity:1;stroke:none;stroke-width:0.13250001;stroke-linecap:butt;stroke-linejoin:round;stroke-miterlimit:4;stroke-dasharray:none;stroke-opacity:1;paint-order:markers fill stroke"
       id="path836-2-58"
       cx="166.30104"
       cy="197.21938"
       r="2.5" />
    <circle
       style="opacity:1;fill:#a4e0ff;fill-opacity:1;stroke:none;stroke-width:0.13250001;stroke-linecap:butt;stroke-linejoin:round;stroke-miterlimit:4;stroke-dasharray:none;stroke-opacity:1;paint-order:markers fill stroke"
       id="path836-2-2"
       cx="144.00159"
       cy="195.70755"
       r="2.5" />
    <circle
       style="opacity:1;fill:#a4e0ff;fill-opacity:1;stroke:none;stroke-width:0.13250001;stroke-linecap:butt;stroke-linejoin:round;stroke-miterlimit:4;stroke-dasharray:none;stroke-opacity:1;paint-order:markers fill stroke"
       id="path836-2-60"
       cx="144.75749"
       cy="153.37637"
       r="2.5" />
    <circle
       style="opacity:1;fill:#a4e0ff;fill-opacity:1;stroke:none;stroke-width:0.13250001;stroke-linecap:butt;stroke-linejoin:round;stroke-miterlimit:4;stroke-dasharray:none;stroke-opacity:1;paint-order:markers fill stroke"
       id="path836-2-66"
       cx="76.347298"
       cy="215.36131"
       r="2.5" />
    <circle
       style="opacity:1;fill:#a4e0ff;fill-opacity:1;stroke:none;stroke-width:0.13250001;stroke-linecap:butt;stroke-linejoin:round;stroke-miterlimit:4;stroke-dasharray:none;stroke-opacity:1;paint-order:markers fill stroke"
       id="path836-2-46"
       cx="49.512356"
       cy="137.50218"
       r="2.5" />
    <circle
       style="opacity:1;fill:#a4e0ff;fill-opacity:1;stroke:none;stroke-width:0.13250001;stroke-linecap:butt;stroke-linejoin:round;stroke-miterlimit:4;stroke-dasharray:none;stroke-opacity:1;paint-order:markers fill stroke"
       id="path836-2-28"
       cx="100.53654"
       cy="216.11722"
       r="2.5" />
    <circle
       style="opacity:1;fill:#a4e000;fill-opacity:1;stroke:none;stroke-width:0.13250001;stroke-linecap:butt;stroke-linejoin:round;stroke-miterlimit:4;stroke-dasharray:none;stroke-opacity:1;paint-order:markers fill stroke"
       id="path836-5-9"
       cx="116.03277"
       cy="135.23445"
       r="2.5" />
    <circle
       style="opacity:1;fill:#a4e000;fill-opacity:1;stroke:none;stroke-width:0.13250001;stroke-linecap:butt;stroke-linejoin:round;stroke-miterlimit:4;stroke-dasharray:none;stroke-opacity:1;paint-order:markers fill stroke"
       id="path836-5-6"
       cx="153.07254"
       cy="180.96722"
       r="2.5" />
    <circle
       style="opacity:1;fill:#a4e000;fill-opacity:1;stroke:none;stroke-width:0.13250001;stroke-linecap:butt;stroke-linejoin:round;stroke-miterlimit:4;stroke-dasharray:none;stroke-opacity:1;paint-order:markers fill stroke"
       id="path836-5-0"
       cx="111.49728"
       cy="107.64359"
       r="2.5" />
    <path
       style="fill:none;stroke:#000000;stroke-width:0.26458332px;stroke-linecap:butt;stroke-linejoin:miter;stroke-opacity:1"
       d="m 30.538564,230.91172 -0.06872,4.50266"
       id="path1101"
       inkscape:connector-curvature="0" />
    <path
       style="fill:none;stroke:#000000;stroke-width:0.26458332px;stroke-linecap:butt;stroke-linejoin:miter;stroke-opacity:1"
       d="m 179.56389,230.72274 -0.0687,4.50266"
       id="path1101-0"
       inkscape:connector-curvature="0" />
    <path
       style="fill:none;stroke:#000000;stroke-width:0.26458332px;stroke-linecap:butt;stroke-linejoin:miter;stroke-opacity:1"
       d="m 55.376119,230.72274 -0.06872,4.50266"
       id="path1101-1"
       inkscape:connector-curvature="0" />
    <path
       style="fill:none;stroke:#000000;stroke-width:0.26458332px;stroke-linecap:butt;stroke-linejoin:miter;stroke-opacity:1"
       d="m 67.794894,230.72274 -0.06872,4.50267"
       id="path1101-01"
       inkscape:connector-curvature="0" />
    <path
       style="fill:none;stroke:#000000;stroke-width:0.26458332px;stroke-linecap:butt;stroke-linejoin:miter;stroke-opacity:1"
       d="m 80.213677,230.72274 -0.06872,4.50266"
       id="path1101-3"
       inkscape:connector-curvature="0" />
    <path
       style="fill:none;stroke:#000000;stroke-width:0.26458332px;stroke-linecap:butt;stroke-linejoin:miter;stroke-opacity:1"
       d="m 92.632458,230.72274 -0.06872,4.50266"
       id="path1101-7"
       inkscape:connector-curvature="0" />
    <path
       style="fill:none;stroke:#000000;stroke-width:0.26458332px;stroke-linecap:butt;stroke-linejoin:miter;stroke-opacity:1"
       d="m 105.05122,230.72274 -0.0687,4.50267"
       id="path1101-72"
       inkscape:connector-curvature="0" />
    <path
       style="fill:none;stroke:#000000;stroke-width:0.26458332px;stroke-linecap:butt;stroke-linejoin:miter;stroke-opacity:1"
       d="m 117.47,230.72274 -0.0687,4.50266"
       id="path1101-6"
       inkscape:connector-curvature="0" />
    <path
       style="fill:none;stroke:#000000;stroke-width:0.26458332px;stroke-linecap:butt;stroke-linejoin:miter;stroke-opacity:1"
       d="m 129.88878,230.72274 -0.0687,4.50266"
       id="path1101-4"
       inkscape:connector-curvature="0" />
    <path
       style="fill:none;stroke:#000000;stroke-width:0.26458332px;stroke-linecap:butt;stroke-linejoin:miter;stroke-opacity:1"
       d="m 142.30756,230.72274 -0.0687,4.50267"
       id="path1101-5"
       inkscape:connector-curvature="0" />
    <path
       style="fill:none;stroke:#000000;stroke-width:0.26458332px;stroke-linecap:butt;stroke-linejoin:miter;stroke-opacity:1"
       d="m 154.72635,230.72274 -0.0687,4.50266"
       id="path1101-2"
       inkscape:connector-curvature="0" />
    <path
       style="fill:none;stroke:#000000;stroke-width:0.26458332px;stroke-linecap:butt;stroke-linejoin:miter;stroke-opacity:1"
       d="m 167.14513,230.72274 -0.0687,4.50266"
       id="path1101-02"
       inkscape:connector-curvature="0" />
    <path
       style="fill:none;stroke:#000000;stroke-width:0.26458332px;stroke-linecap:butt;stroke-linejoin:miter;stroke-opacity:1"
       d="m 42.95734,230.72274 -0.06872,4.50267"
       id="path1101-9"
       inkscape:connector-curvature="0" />
    <g
       id="g1341"
       transform="rotate(90,83.888862,208.41399)">
      <path
         inkscape:connector-curvature="0"
         id="path1101-75"
         d="m 102.87615,265.35054 -0.0687,4.50266"
         style="fill:none;stroke:#000000;stroke-width:0.26458332px;stroke-linecap:butt;stroke-linejoin:miter;stroke-opacity:1" />
      <path
         inkscape:connector-curvature="0"
         id="path1101-0-9"
         d="m -46.149187,265.35055 -0.0687,4.50266"
         style="fill:none;stroke:#000000;stroke-width:0.26458332px;stroke-linecap:butt;stroke-linejoin:miter;stroke-opacity:1" />
      <path
         inkscape:connector-curvature="0"
         id="path1101-1-7"
         d="m 78.038595,265.35054 -0.0687,4.50266"
         style="fill:none;stroke:#000000;stroke-width:0.26458332px;stroke-linecap:butt;stroke-linejoin:miter;stroke-opacity:1" />
      <path
         inkscape:connector-curvature="0"
         id="path1101-01-8"
         d="m 65.61982,265.35052 -0.0687,4.50268"
         style="fill:none;stroke:#000000;stroke-width:0.26458332px;stroke-linecap:butt;stroke-linejoin:miter;stroke-opacity:1" />
      <path
         inkscape:connector-curvature="0"
         id="path1101-3-5"
         d="m 53.201038,265.35054 -0.0687,4.50266"
         style="fill:none;stroke:#000000;stroke-width:0.26458332px;stroke-linecap:butt;stroke-linejoin:miter;stroke-opacity:1" />
      <path
         inkscape:connector-curvature="0"
         id="path1101-7-3"
         d="m 40.782255,265.35054 -0.0687,4.50266"
         style="fill:none;stroke:#000000;stroke-width:0.26458332px;stroke-linecap:butt;stroke-linejoin:miter;stroke-opacity:1" />
      <path
         inkscape:connector-curvature="0"
         id="path1101-72-3"
         d="m 28.363484,265.35053 -0.0687,4.50267"
         style="fill:none;stroke:#000000;stroke-width:0.26458332px;stroke-linecap:butt;stroke-linejoin:miter;stroke-opacity:1" />
      <path
         inkscape:connector-curvature="0"
         id="path1101-6-8"
         d="m 15.944704,265.35055 -0.0687,4.50266"
         style="fill:none;stroke:#000000;stroke-width:0.26458332px;stroke-linecap:butt;stroke-linejoin:miter;stroke-opacity:1" />
      <path
         inkscape:connector-curvature="0"
         id="path1101-4-3"
         d="m 3.525925,265.35055 -0.0687,4.50266"
         style="fill:none;stroke:#000000;stroke-width:0.26458332px;stroke-linecap:butt;stroke-linejoin:miter;stroke-opacity:1" />
      <path
         inkscape:connector-curvature="0"
         id="path1101-5-7"
         d="m -8.892853,265.35053 -0.0687,4.50267"
         style="fill:none;stroke:#000000;stroke-width:0.26458332px;stroke-linecap:butt;stroke-linejoin:miter;stroke-opacity:1" />
      <path
         inkscape:connector-curvature="0"
         id="path1101-2-9"
         d="m -21.311643,265.35055 -0.0687,4.50266"
         style="fill:none;stroke:#000000;stroke-width:0.26458332px;stroke-linecap:butt;stroke-linejoin:miter;stroke-opacity:1" />
      <path
         inkscape:connector-curvature="0"
         id="path1101-02-3"
         d="m -33.730423,265.35055 -0.0687,4.50266"
         style="fill:none;stroke:#000000;stroke-width:0.26458332px;stroke-linecap:butt;stroke-linejoin:miter;stroke-opacity:1" />
      <path
         inkscape:connector-curvature="0"
         id="path1101-9-7"
         d="m 90.457374,265.35052 -0.0687,4.50267"
         style="fill:none;stroke:#000000;stroke-width:0.26458332px;stroke-linecap:butt;stroke-linejoin:miter;stroke-opacity:1" />
    </g>
    <path
       style="fill:none;stroke:#ff1e23;stroke-width:0.26458332px;stroke-linecap:butt;stroke-linejoin:miter;stroke-opacity:1"
       d="m 38.173646,80.808649 c 0,0 19.989434,20.705431 28.88128,31.988781 3.531271,4.48102 9.953928,8.4238 9.670324,14.12196 -0.155562,3.12555 -3.424073,5.47476 -6.047309,7.18118 -3.409014,2.21758 -7.694108,3.99999 -11.716665,3.40161 -3.421794,-0.50901 -5.30969,-4.94759 -8.693007,-5.66935 -2.142297,-0.45701 -4.582213,-0.0452 -6.490117,1.03104 -1.331589,0.75111 -2.914485,1.97626 -2.958807,3.50444 -0.08852,3.05211 2.83059,5.83639 5.493806,7.32987 1.986834,1.11418 4.584534,0.12915 6.803223,0.64522 3.079462,0.71628 5.99877,2.0368 8.868558,3.36362 3.198872,1.47897 6.746501,2.63205 9.259944,5.10242 3.159539,3.1054 4.802429,7.48497 6.614246,11.52768 1.629362,3.6356 2.99095,7.43353 3.779567,11.33871 0.65031,3.2203 1.046125,6.55442 0.755915,9.82688 -0.310418,3.50034 -1.244304,6.98229 -2.645698,10.20484 -0.65508,1.50638 -1.889098,2.69949 -2.645699,4.15752 -2.13369,4.11179 -5.208247,8.21885 -5.291397,12.85054 -0.06511,3.62684 0.802305,8.13261 3.779571,10.20483 1.757881,1.22351 4.459183,0.84949 6.425266,0 2.699921,-1.16656 5.620214,-3.51527 6.047311,-6.42526 0.490902,-3.34472 -4.048732,-5.72565 -4.535482,-9.07097 -0.313147,-2.15219 -0.447601,-4.93231 1.133869,-6.42527 1.568147,-1.48038 4.316866,-1.20895 6.425269,-0.75591 2.154667,0.46298 4.69963,1.42257 5.669351,3.40161 1.982005,4.04494 -1.924627,8.9243 -1.606315,13.41747 0.103658,1.4632 0.415359,2.97317 1.13387,4.25202 0.49103,0.87396 1.156932,1.77936 2.078762,2.17325 0.724079,0.30939 1.58414,0.1208 2.362228,0 0.71854,-0.11156 1.40685,-0.38345 2.07877,-0.66142 1.01531,-0.42003 2.06746,-0.8301 2.92916,-1.51183 1.36638,-1.08101 2.58734,-2.42824 3.40161,-3.96855 0.56418,-1.06723 0.81325,-2.29612 0.9449,-3.4961 0.22693,-2.0685 0.44974,-4.28883 -0.28347,-6.23629 -0.56848,-1.50993 -2.08326,-2.46857 -3.02365,-3.77957 -1.39534,-1.94524 -2.32477,-4.22231 -3.87406,-6.04731 -0.54847,-0.64607 -1.27911,-1.11319 -1.88979,-1.7008 -1.139553,-1.0965 -2.391759,-2.11204 -3.307122,-3.40162 -1.681755,-2.36928 -3.668341,-4.90112 -3.895041,-7.79774 -0.298969,-3.82002 1.916703,-7.45667 3.474327,-10.95749 1.217352,-2.73605 3.723096,-4.8703 4.543346,-7.75042 0.98854,-3.47103 -0.10922,-7.2345 0.26726,-10.82386 0.27887,-2.65872 0.93282,-5.26526 1.46991,-7.88405 0.61443,-2.99588 1.1136,-6.02745 2.00442,-8.95307 0.75174,-2.46887 2.35212,-4.67538 2.80618,-7.21591 0.36467,-2.0404 0.0534,-4.15075 -0.10677,-6.21729 -0.31594,-4.07607 -1.27357,-8.08119 -1.68164,-12.14907 -0.30239,-3.01443 -1.8781,-6.33984 -0.56694,-9.07097 0.90008,-1.87485 3.10754,-3.00264 5.10242,-3.59059 1.51179,-0.445567 3.46841,-0.763056 4.72446,0.18898 1.95271,1.48008 2.26686,4.54195 2.26774,6.9922 8.1e-4,2.25106 -0.74436,4.61236 -2.07876,6.42527 -0.77702,1.05566 -2.8227,1.01628 -3.21263,2.26774 -0.97819,3.13946 1.98247,6.29362 3.40161,9.25995 0.79259,1.6567 2.19715,3.00212 2.83467,4.72446 1.04251,2.81649 1.80953,5.89353 1.51183,8.88198 -0.17394,1.74613 -1.06364,3.3653 -1.88978,4.91344 -0.97912,1.83482 -2.96288,3.11969 -3.59059,5.10242 -0.6084,1.92176 -0.15538,4.03754 0,6.04731 0.22113,2.86023 -0.31824,6.15102 1.32285,8.50403 0.371,0.53195 1.13919,0.62053 1.7008,0.9449 0.95421,0.55112 1.98643,0.99744 2.83468,1.7008 1.16782,0.96834 2.12556,2.17894 3.02365,3.40161 1.52211,2.07221 2.50754,4.49852 3.96855,6.61425 0.86649,1.25479 1.79786,2.47242 2.83468,3.59059 1.45498,1.56914 3.74764,2.44256 4.72446,4.3465 2.14354,4.17803 -0.17591,9.67992 1.70081,13.98441 1.4828,3.40098 3.55087,7.73843 7.18118,8.50403 2.81176,0.59298 6.04957,-1.46169 7.74811,-3.77957 1.7693,-2.41444 1.77299,-5.92271 1.32285,-8.88199 -0.30505,-2.00546 -1.76868,-3.65123 -2.6457,-5.48037 -1.26692,-2.64233 -3.75809,-5.00683 -3.77956,-7.9371 -0.0244,-3.32602 1.14453,-7.66209 4.15752,-9.07096 3.90369,-1.82535 9.99746,-0.12606 12.47258,3.40161 2.68614,3.82842 -0.26528,9.38901 -1.13387,13.98441 -0.89199,4.7192 -3.75371,9.00966 -4.15753,13.79542 -0.25621,3.0364 -0.5909,6.5589 1.13387,9.07097 4.53032,6.59827 17.25186,10.5598 21.16559,11.33871"
       id="path881"
       inkscape:connector-curvature="0"
       sodipodi:nodetypes="caaaaaaaaaaaaaaaaaaaaaaaaaaaaaaaaaaaaaaaaaaaaaaaaaaaaaaaaaaaaaaaaaaaaaaaaaaaac" />
    <path
       style="fill:none;stroke:#71e73f;stroke-width:0.4;stroke-linecap:butt;stroke-linejoin:miter;stroke-opacity:1;stroke-miterlimit:4;stroke-dasharray:none"
       d="m 38.173646,80.808649 c 0,0 36.835189,31.587801 42.537631,53.699771 0.947232,3.67302 -1.63064,7.43916 -1.870789,11.22474 -0.440249,6.93984 -1.768725,14.38471 0.801767,20.84596 0.700116,1.75983 1.958186,3.6384 3.741581,4.2761 6.63319,2.37188 13.825464,-2.8933 20.845964,-3.47433 2.04198,-0.169 4.31919,-0.92616 6.14688,0 2.95627,1.49806 3.52156,5.6889 5.87963,8.01768 4.90735,4.84639 10.76137,8.76234 16.83712,12.02651 3.94965,2.12194 8.33312,3.31826 12.56103,4.81061 3.00195,1.05962 6.48572,1.10421 9.0867,2.93981 3.94519,2.78425 5.63551,7.8617 8.81944,11.49201 3.32286,3.78872 7.03145,7.22482 10.69024,10.69023 2.08471,1.97452 6.41256,5.75169 6.41256,5.75169"
       id="path883"
       inkscape:connector-curvature="0"
       sodipodi:nodetypes="caaaaaaaaaaaac" />
    <path
       style="fill:none;stroke:#ff2117;stroke-width:0.26458332px;stroke-linecap:butt;stroke-linejoin:miter;stroke-opacity:1"
       d="m 24.538175,243.55689 h 15.83491"
       id="path885"
       inkscape:connector-curvature="0"
       sodipodi:nodetypes="cc" />
    <text
       xml:space="preserve"
       style="font-style:normal;font-variant:normal;font-weight:normal;font-stretch:normal;font-size:7.05555534px;line-height:1;font-family:sans-serif;-inkscape-font-specification:'sans-serif, Normal';font-variant-ligatures:normal;font-variant-caps:normal;font-variant-numeric:normal;font-feature-settings:normal;text-align:start;letter-spacing:0px;word-spacing:0px;writing-mode:lr-tb;text-anchor:start;fill:#000000;fill-opacity:1;stroke:none;stroke-width:0.26458332"
       x="44.220959"
       y="245.50337"
       id="text889"><tspan
         sodipodi:role="line"
         id="tspan887"
         x="44.220959"
         y="245.50337"
         style="stroke-width:0.26458332">Klassengrenze mit Overfitting</tspan></text>
    <path
       style="fill:none;stroke:#59ff37;stroke-width:0.26458332px;stroke-linecap:butt;stroke-linejoin:miter;stroke-opacity:1"
       d="m 24.538175,254.40392 h 15.83491"
       id="path885-1"
       inkscape:connector-curvature="0"
       sodipodi:nodetypes="cc" />
    <text
       xml:space="preserve"
       style="font-style:normal;font-variant:normal;font-weight:normal;font-stretch:normal;font-size:7.05555534px;line-height:1;font-family:sans-serif;-inkscape-font-specification:'sans-serif, Normal';font-variant-ligatures:normal;font-variant-caps:normal;font-variant-numeric:normal;font-feature-settings:normal;text-align:start;letter-spacing:0px;word-spacing:0px;writing-mode:lr-tb;text-anchor:start;fill:#000000;fill-opacity:1;stroke:none;stroke-width:0.26458332"
       x="44.220959"
       y="256.35034"
       id="text908"><tspan
         sodipodi:role="line"
         id="tspan906"
         x="44.220959"
         y="256.35034"
         style="stroke-width:0.26458332">Erwartete Klassengrenze</tspan></text>
  </g>
</svg>
